<svg width="144" height="145" viewBox="0 0 144 145" fill="none" xmlns="http://www.w3.org/2000/svg">
<mask id="mask0_6_233" style="mask-type:alpha" maskUnits="userSpaceOnUse" x="0" y="0" width="144" height="145">
<rect y="0.514648" width="144" height="144" fill="#D9D9D9"/>
</mask>
<g mask="url(#mask0_6_233)">
<path d="M24 120.515V99.5146H30V114.515H45V120.515H24ZM99 120.515V114.515H114V99.5146H120V120.515H99ZM72 108.515C62.015 108.515 53.519 105.011 46.512 98.0026C39.504 90.9957 36 82.4996 36 72.5146C36 62.5296 39.504 54.0337 46.512 47.0267C53.519 40.0187 62.015 36.5146 72 36.5146C81.985 36.5146 90.481 40.0187 97.488 47.0267C104.496 54.0337 108 62.5296 108 72.5146C108 82.4996 104.496 90.9957 97.488 98.0026C90.481 105.011 81.985 108.515 72 108.515ZM72 102.515C80.3 102.515 87.375 99.5897 93.225 93.7397C99.075 87.8897 102 80.8146 102 72.5146C102 64.2146 99.075 57.1396 93.225 51.2896C87.375 45.4396 80.3 42.5146 72 42.5146C63.7 42.5146 56.625 45.4396 50.775 51.2896C44.925 57.1396 42 64.2146 42 72.5146C42 80.8146 44.925 87.8897 50.775 93.7397C56.625 99.5897 63.7 102.515 72 102.515ZM24 45.5146V24.5146H45V30.5146H30V45.5146H24ZM114 45.5146V30.5146H99V24.5146H120V45.5146H114Z" fill="#AA336A"/>
</g>
</svg>
