<svg width="837" height="401" viewBox="0 0 837 401" fill="none" xmlns="http://www.w3.org/2000/svg">
<path d="M805.38 27C822.843 27 837 42.2223 837 61V374C837 388.912 825.758 401 811.89 401H25.11C11.2421 401 0 388.912 0 374V27C0 12.0883 11.2421 0 25.11 0H599.85C617.313 5.51952e-07 632.256 19.9536 648.879 25.7066C651.306 26.5464 653.894 27 656.58 27L805.38 27Z" fill="white" fill-opacity="0.04"/>
<path d="M836.5 61C836.5 42.4637 822.534 27.5 805.38 27.5L656.58 27.5C653.837 27.5 651.194 27.0368 648.716 26.1791C641.748 23.7676 635.072 18.8877 628.46 14.0552C627.101 13.0618 625.745 12.0704 624.389 11.1029C616.385 5.38985 608.403 0.5 599.85 0.5H25.11C11.5518 0.5 0.5 12.3297 0.5 27V374C0.5 388.67 11.5518 400.5 25.11 400.5H811.89C825.448 400.5 836.5 388.67 836.5 374V61Z" stroke="white" stroke-opacity="0.38"/>
</svg>
