<svg width="53" height="49" viewBox="0 0 53 49" fill="none" xmlns="http://www.w3.org/2000/svg">
<rect width="53" height="49" rx="10" fill="#AA336A"/>
<mask id="mask0_2017_2" style="mask-type:alpha" maskUnits="userSpaceOnUse" x="10" y="8" width="34" height="34">
<rect x="10" y="8" width="34" height="34" fill="#D9D9D9"/>
</mask>
<g mask="url(#mask0_2017_2)">
<path d="M16.2404 25.8989C15.2948 25.8989 14.4906 25.5661 13.8278 24.9005C13.1648 24.2349 12.8333 23.4267 12.8333 22.4759C12.8333 21.525 13.1642 20.7227 13.826 20.0689C14.4879 19.4152 15.2916 19.0883 16.2372 19.0883C17.1826 19.0883 17.9868 19.4167 18.6498 20.0736C19.3128 20.7304 19.6443 21.528 19.6443 22.4663C19.6443 23.42 19.3134 24.2305 18.6516 24.898C17.9895 25.5653 17.1858 25.8989 16.2404 25.8989ZM14.25 33.8269V32.0833H39.75V33.8269H14.25ZM27.0018 25.872C26.0561 25.872 25.2518 25.5409 24.5888 24.8789C23.9261 24.2171 23.5947 23.4135 23.5947 22.4681C23.5947 21.5224 23.9256 20.7181 24.5874 20.0551C25.2492 19.3924 26.0528 19.061 26.9982 19.061C27.9438 19.061 28.7481 19.3919 29.4111 20.0537C30.0739 20.7155 30.4053 21.5193 30.4053 22.4649C30.4053 23.4103 30.0744 24.2145 29.4126 24.8775C28.7507 25.5405 27.9471 25.872 27.0018 25.872ZM37.7628 25.872C36.8174 25.872 36.0132 25.5409 35.3502 24.8789C34.6872 24.2171 34.3557 23.4135 34.3557 22.4681C34.3557 21.5224 34.6866 20.7181 35.3484 20.0551C36.0105 19.3924 36.8142 19.061 37.7596 19.061C38.7052 19.061 39.5094 19.3919 40.1721 20.0537C40.8351 20.7155 41.1666 21.5193 41.1666 22.4649C41.1666 23.4103 40.8357 24.2145 40.1739 24.8775C39.5121 25.5405 38.7084 25.872 37.7628 25.872Z" fill="white"/>
</g>
</svg>
