<svg width="144" height="144" viewBox="0 0 144 144" fill="none" xmlns="http://www.w3.org/2000/svg">
<mask id="mask0_6_275" style="mask-type:alpha" maskUnits="userSpaceOnUse" x="0" y="0" width="144" height="144">
<rect width="144" height="144" fill="#D9D9D9"/>
</mask>
<g mask="url(#mask0_6_275)">
<path d="M24.693 116.078V110.078H43.269L36.9465 103.823C32.2845 99.2996 28.923 94.3381 26.862 88.9381C24.8 83.5381 23.769 78.0691 23.769 72.5311C23.769 62.8921 26.517 54.1711 32.013 46.3681C37.509 38.5641 44.761 32.9926 53.769 29.6536V36.0226C46.492 39.0846 40.673 43.9331 36.312 50.5681C31.95 57.2021 29.769 64.5231 29.769 72.5311C29.769 77.4151 30.696 82.1556 32.55 86.7526C34.404 91.3486 37.285 95.6001 41.193 99.5071L47.307 105.623V87.4621H53.307V116.078H24.693ZM119.434 64.0381H113.4C112.669 60.5381 111.44 57.1306 109.713 53.8156C107.986 50.5006 105.684 47.3931 102.807 44.4931L96.693 38.3776V56.5381H90.693V27.9226H119.307V33.9226H100.731L107.053 40.1776C110.538 43.7616 113.285 47.5576 115.293 51.5656C117.3 55.5736 118.68 59.7311 119.434 64.0381ZM102 124.847L101.353 119.654C99.0765 119.154 97.2015 118.456 95.7285 117.56C94.2555 116.664 92.8535 115.547 91.5225 114.209L86.7465 116.331L83.2845 111.207L87.531 107.747C86.792 105.578 86.4225 103.508 86.4225 101.538C86.4225 99.5691 86.792 97.5001 87.531 95.3311L83.2845 91.8691L86.7465 86.7466L91.5225 88.8691C92.8535 87.5311 94.2555 86.4141 95.7285 85.5181C97.2015 84.6211 99.0765 83.9226 101.353 83.4226L102 78.2311H108L108.646 83.4226C110.923 83.9226 112.798 84.6266 114.271 85.5346C115.744 86.4426 117.146 87.5771 118.477 88.9381L123.253 86.7466L126.715 91.9381L122.469 95.4001C123.208 97.5231 123.577 99.5806 123.577 101.573C123.577 103.566 123.208 105.624 122.469 107.747L126.715 111.207L123.253 116.331L118.477 114.209C117.146 115.547 115.744 116.664 114.271 117.56C112.798 118.456 110.923 119.154 108.646 119.654L108 124.847H102ZM105 114.462C108.531 114.462 111.567 113.191 114.109 110.648C116.651 108.106 117.922 105.069 117.922 101.538C117.922 98.0081 116.651 94.9716 114.109 92.4286C111.567 89.8866 108.531 88.6156 105 88.6156C101.469 88.6156 98.4325 89.8866 95.8905 92.4286C93.3485 94.9716 92.0775 98.0081 92.0775 101.538C92.0775 105.069 93.3485 108.106 95.8905 110.648C98.4325 113.191 101.469 114.462 105 114.462Z" fill="#AA336A"/>
</g>
</svg>
