<svg width="144" height="145" viewBox="0 0 144 145" fill="none" xmlns="http://www.w3.org/2000/svg">
<mask id="mask0_6_190" style="mask-type:alpha" maskUnits="userSpaceOnUse" x="0" y="0" width="144" height="145">
<rect y="0.514648" width="144" height="144" fill="#D9D9D9"/>
</mask>
<g mask="url(#mask0_6_190)">
<path d="M46.1535 98.3611V46.6681H97.8465V98.3611H46.1535ZM52.1535 92.3611H91.8465V52.6681H52.1535V92.3611ZM31.3845 113.13V120.515C29.3535 120.515 27.615 119.792 26.169 118.346C24.723 116.9 24 115.161 24 113.13H31.3845ZM24 98.3611V90.9766H31.3845V98.3611H24ZM24 76.2076V68.8216H31.3845V76.2076H24ZM24 54.0526V46.6681H31.3845V54.0526H24ZM31.3845 31.8991H24C24 29.8681 24.723 28.1297 26.169 26.6837C27.615 25.2377 29.3535 24.5146 31.3845 24.5146V31.8991ZM46.1535 120.515V113.13H53.538V120.515H46.1535ZM46.1535 31.8991V24.5146H53.538V31.8991H46.1535ZM68.307 120.515V113.13H75.693V120.515H68.307ZM68.307 31.8991V24.5146H75.693V31.8991H68.307ZM90.462 120.515V113.13H97.8465V120.515H90.462ZM90.462 31.8991V24.5146H97.8465V31.8991H90.462ZM112.616 120.515V113.13H120C120 115.199 119.277 116.947 117.831 118.374C116.385 119.801 114.647 120.515 112.616 120.515ZM112.616 98.3611V90.9766H120V98.3611H112.616ZM112.616 76.2076V68.8216H120V76.2076H112.616ZM112.616 54.0526V46.6681H120V54.0526H112.616ZM112.616 31.8991V24.5146C114.647 24.5146 116.385 25.2377 117.831 26.6837C119.277 28.1297 120 29.8681 120 31.8991H112.616Z" fill="#AA336A"/>
</g>
</svg>
