<svg width="144" height="144" viewBox="0 0 144 144" fill="none" xmlns="http://www.w3.org/2000/svg">
<mask id="mask0_6_293" style="mask-type:alpha" maskUnits="userSpaceOnUse" x="0" y="0" width="144" height="144">
<rect width="144" height="144" fill="#D9D9D9"/>
</mask>
<g mask="url(#mask0_6_293)">
<path d="M23.4225 132V105.416C20.1535 104.524 17.4325 102.821 15.2595 100.309C13.0865 97.7985 12 94.7805 12 91.2555V37.038H23.4225V15C23.4225 14.15 23.7105 13.4375 24.2865 12.8625C24.8625 12.2875 25.576 12 26.427 12C27.278 12 27.99 12.2875 28.563 12.8625C29.136 13.4375 29.4225 14.15 29.4225 15V37.038H40.8465V91.2555C40.8465 94.7805 39.76 97.7985 37.587 100.309C35.414 102.821 32.6925 104.524 29.4225 105.416V132H23.4225ZM69 132V105.416C65.731 104.524 63.01 102.821 60.837 100.309C58.664 97.7985 57.5775 94.7805 57.5775 91.2555V37.038H69V15C69 14.15 69.288 13.4375 69.864 12.8625C70.44 12.2875 71.1535 12 72.0045 12C72.8555 12 73.5675 12.2875 74.1405 12.8625C74.7135 13.4375 75 14.15 75 15V37.038H86.4225V91.2555C86.4225 94.7805 85.336 97.7985 83.163 100.309C80.99 102.821 78.269 104.524 75 105.416V132H69ZM114.577 132V105.416C111.308 104.524 108.586 102.821 106.413 100.309C104.24 97.7985 103.154 94.7805 103.154 91.2555V37.038H114.577V15C114.577 14.15 114.865 13.4375 115.44 12.8625C116.016 12.2875 116.729 12 117.581 12C118.432 12 119.144 12.2875 119.718 12.8625C120.291 13.4375 120.577 14.15 120.577 15V37.038H132V91.2555C132 94.7805 130.914 97.7985 128.741 100.309C126.568 102.821 123.847 104.524 120.577 105.416V132H114.577ZM18 43.038V71.193H34.8465V43.038H18ZM63.5775 43.038V71.193H80.4225V43.038H63.5775ZM109.154 43.038V71.193H126V43.038H109.154ZM26.4225 99.693C28.7385 99.693 30.7215 98.8855 32.3715 97.2705C34.0215 95.6565 34.8465 93.656 34.8465 91.269V77.193H18V91.269C18 93.656 18.825 95.6565 20.475 97.2705C22.125 98.8855 24.1075 99.693 26.4225 99.693ZM72 99.693C74.315 99.693 76.2975 98.8855 77.9475 97.2705C79.5975 95.6565 80.4225 93.656 80.4225 91.269V77.193H63.5775V91.269C63.5775 93.656 64.4025 95.6565 66.0525 97.2705C67.7025 98.8855 69.685 99.693 72 99.693ZM117.577 99.693C119.893 99.693 121.875 98.8855 123.525 97.2705C125.175 95.6565 126 93.656 126 91.269V77.193H109.154V91.269C109.154 93.656 109.979 95.6565 111.628 97.2705C113.278 98.8855 115.262 99.693 117.577 99.693Z" fill="#AA336A"/>
</g>
</svg>
