<svg width="144" height="145" viewBox="0 0 144 145" fill="none" xmlns="http://www.w3.org/2000/svg">
<mask id="mask0_6_281" style="mask-type:alpha" maskUnits="userSpaceOnUse" x="0" y="0" width="144" height="145">
<rect y="0.514648" width="144" height="144" fill="#D9D9D9"/>
</mask>
<g mask="url(#mask0_6_281)">
<path d="M71.7689 78.5146C70.1609 78.5146 68.7589 77.9166 67.563 76.7206C66.367 75.5247 65.7689 74.1227 65.7689 72.5146C65.7689 70.9066 66.367 69.5046 67.563 68.3086C68.7589 67.1126 70.1609 66.5146 71.7689 66.5146C73.3769 66.5146 74.779 67.1126 75.975 68.3086C77.171 69.5046 77.769 70.9066 77.769 72.5146C77.769 74.1227 77.171 75.5247 75.975 76.7206C74.779 77.9166 73.3769 78.5146 71.7689 78.5146ZM71.7689 120.515C59.5609 120.515 48.934 116.517 39.888 108.521C30.842 100.525 25.6074 90.5227 24.1844 78.5146H30.2534C31.8844 88.8376 36.602 97.4186 44.406 104.258C52.21 111.096 61.3309 114.515 71.7689 114.515C83.4689 114.515 93.394 110.44 101.544 102.29C109.694 94.1396 113.769 84.2146 113.769 72.5146C113.769 60.8146 109.694 50.8896 101.544 42.7396C93.394 34.5896 83.4689 30.5146 71.7689 30.5146C65.5609 30.5146 59.7264 31.8261 54.2654 34.4491C48.8034 37.0721 43.9839 40.6837 39.8069 45.2837H54.6929V51.2837H29.7689V26.3611H35.7689V40.6921C40.4079 35.5991 45.8444 31.6297 52.0784 28.7837C58.3134 25.9377 64.8769 24.5146 71.7689 24.5146C78.4289 24.5146 84.667 25.7666 90.4829 28.2706C96.299 30.7746 101.382 34.2017 105.732 38.5517C110.082 42.9017 113.509 47.9841 116.013 53.7991C118.517 59.6131 119.769 65.8496 119.769 72.5086C119.769 79.1666 118.517 85.4052 116.013 91.2242C113.509 97.0432 110.082 102.128 105.732 106.478C101.382 110.828 96.299 114.255 90.4829 116.759C84.667 119.263 78.4289 120.515 71.7689 120.515Z" fill="#AA336A"/>
</g>
</svg>
