<svg width="144" height="144" viewBox="0 0 144 144" fill="none" xmlns="http://www.w3.org/2000/svg">
<mask id="mask0_6_311" style="mask-type:alpha" maskUnits="userSpaceOnUse" x="0" y="0" width="144" height="144">
<rect width="144" height="144" fill="#D9D9D9"/>
</mask>
<g mask="url(#mask0_6_311)">
<path d="M126 109.131L120 103.131V63.693C120 62.693 119.635 61.8275 118.903 61.0965C118.172 60.3655 117.307 60 116.307 60H76.869L70.869 54H116.307C118.973 54 121.255 54.949 123.153 56.847C125.051 58.745 126 61.027 126 63.693V109.131ZM84 39.693V27.693C84 26.693 83.6345 25.8275 82.9035 25.0965C82.1725 24.3655 81.307 24 80.307 24H40.869L34.869 18H80.307C82.973 18 85.255 18.949 87.153 20.847C89.051 22.745 90 25.027 90 27.693V39.693H84ZM63.693 120H111.438L60 68.562V116.307C60 117.384 60.346 118.269 61.038 118.962C61.731 119.654 62.616 120 63.693 120ZM121.719 130.281L117.438 126H63.693C60.946 126 58.644 125.071 56.787 123.213C54.929 121.356 54 119.054 54 116.307V62.562L27.693 32.562V84H39.693V90H27.693C24.908 90 22.596 89.071 20.757 87.213C18.919 85.356 18 83.054 18 80.307V26.562L13.719 22.281L18 18L126 126L121.719 130.281Z" fill="#AA336A"/>
</g>
</svg>
